<svg xmlns="http://www.w3.org/2000/svg" viewBox="0 0 590.33 419.59"><defs><style>.cls-1{opacity:0.6;}.cls-2{fill:#ebebeb;}.cls-3{fill:#f0f0f0;}.cls-4{fill:#f5f5f5;}.cls-5,.cls-7{fill:#e0e0e0;}.cls-5{opacity:0.5;}.cls-13,.cls-14,.cls-15,.cls-16,.cls-17,.cls-18,.cls-21,.cls-22,.cls-5{isolation:isolate;}.cls-6{fill:#e6e6e6;}.cls-8{fill:#fafafa;}.cls-18,.cls-21,.cls-22,.cls-9{fill:#fff;}.cls-10{opacity:0.3;}.cls-11,.cls-15,.cls-16,.cls-17{fill:#84277f;}.cls-12{fill:#263238;}.cls-13,.cls-15,.cls-22{opacity:0.2;}.cls-14{opacity:0.1;}.cls-16{opacity:0.4;}.cls-17,.cls-21{opacity:0.6;}.cls-18{opacity:0.7;}.cls-19{fill:#7f3e3b;}.cls-20{fill:#630f0f;}</style></defs><title>Asset 111111</title><g id="Layer_2" data-name="Layer 2"><g id="Layer_4" data-name="Layer 4"><g id="freepik--background-complete--inject-2" class="cls-1"><rect class="cls-2" y="366.27" width="590.33" height="0.3"/><rect class="cls-2" x="492.08" y="385.27" width="39.1" height="0.3"/><rect class="cls-2" x="380.8" y="388.48" width="10.26" height="0.3"/><rect class="cls-2" x="468.24" y="374.31" width="22.66" height="0.3"/><rect class="cls-2" x="61.94" y="376.29" width="50.99" height="0.3"/><rect class="cls-2" x="123.45" y="376.29" width="7.47" height="0.3"/><rect class="cls-2" x="155.22" y="381.28" width="110.6" height="0.3"/><rect class="cls-3" x="514.73" y="300.01" width="37.43" height="66.26"/><rect class="cls-3" x="481.96" y="314.54" width="37.43" height="51.72"/><rect class="cls-3" x="458.03" y="271.92" width="37.43" height="94.35"/><rect class="cls-3" x="433.16" y="195.43" width="37.43" height="170.84"/><rect class="cls-3" x="340.6" y="208.72" width="100.43" height="157.55"/><rect class="cls-4" x="32.55" y="306.98" width="52.99" height="59.29"/><rect class="cls-4" x="78.95" y="319.98" width="52.99" height="46.28"/><rect class="cls-4" x="112.84" y="281.84" width="52.99" height="84.43"/><rect class="cls-4" x="148.05" y="213.39" width="52.99" height="152.88"/><rect class="cls-3" x="190.35" y="179.5" width="86.71" height="186.77"/><rect class="cls-4" x="198.59" y="187.34" width="4.13" height="22.73"/><rect class="cls-4" x="198.59" y="222.87" width="4.13" height="22.73"/><rect class="cls-4" x="198.59" y="258.42" width="4.13" height="22.73"/><rect class="cls-4" x="198.59" y="293.95" width="4.13" height="22.73"/><rect class="cls-4" x="198.59" y="329.49" width="4.13" height="22.73"/><rect class="cls-4" x="213.23" y="187.34" width="4.13" height="22.73"/><rect class="cls-4" x="213.23" y="222.87" width="4.13" height="22.73"/><rect class="cls-4" x="213.23" y="258.42" width="4.13" height="22.73"/><rect class="cls-4" x="213.23" y="293.95" width="4.13" height="22.73"/><rect class="cls-4" x="213.23" y="329.49" width="4.13" height="22.73"/><rect class="cls-4" x="227.86" y="187.34" width="4.13" height="22.73"/><rect class="cls-4" x="227.86" y="222.87" width="4.13" height="22.73"/><rect class="cls-4" x="227.86" y="258.42" width="4.13" height="22.73"/><rect class="cls-4" x="227.86" y="293.95" width="4.13" height="22.73"/><rect class="cls-4" x="227.86" y="329.49" width="4.13" height="22.73"/><rect class="cls-4" x="242.5" y="187.34" width="4.13" height="22.73"/><rect class="cls-4" x="242.5" y="222.87" width="4.13" height="22.73"/><rect class="cls-4" x="242.5" y="258.42" width="4.13" height="22.73"/><rect class="cls-4" x="242.5" y="293.95" width="4.13" height="22.73"/><rect class="cls-4" x="242.5" y="329.49" width="4.13" height="22.73"/><rect class="cls-4" x="257.11" y="187.34" width="4.13" height="22.73"/><rect class="cls-4" x="257.11" y="222.87" width="4.13" height="22.73"/><rect class="cls-4" x="257.11" y="258.42" width="4.13" height="22.73"/><rect class="cls-4" x="257.11" y="293.95" width="4.13" height="22.73"/><rect class="cls-4" x="257.11" y="329.49" width="4.13" height="22.73"/><polygon class="cls-5" points="277.05 179.5 259.18 179.5 251.41 366.27 277.05 366.27 277.05 179.5"/><polygon class="cls-3" points="420.15 50.76 314.96 62.76 314.96 366.27 420.15 366.27 420.15 50.76"/><rect class="cls-6" x="420.15" y="50.76" width="84.16" height="315.51"/><rect class="cls-7" x="314.96" y="76.9" width="189.34" height="1.62"/><rect class="cls-7" x="314.96" y="94.08" width="189.34" height="1.62"/><rect class="cls-7" x="314.96" y="111.26" width="189.34" height="1.62"/><rect class="cls-7" x="314.96" y="128.44" width="189.34" height="1.62"/><rect class="cls-7" x="314.96" y="145.62" width="189.34" height="1.62"/><rect class="cls-7" x="314.96" y="162.79" width="189.34" height="1.62"/><rect class="cls-7" x="314.96" y="179.97" width="189.34" height="1.62"/><rect class="cls-7" x="314.96" y="197.15" width="189.34" height="1.62"/><rect class="cls-7" x="314.96" y="214.33" width="189.34" height="1.62"/><rect class="cls-7" x="314.96" y="231.51" width="189.34" height="1.62"/><rect class="cls-7" x="314.96" y="248.69" width="189.34" height="1.62"/><rect class="cls-7" x="314.96" y="265.88" width="189.34" height="1.62"/><rect class="cls-7" x="314.96" y="283.06" width="189.34" height="1.62"/><rect class="cls-7" x="314.96" y="300.24" width="189.34" height="1.62"/><rect class="cls-7" x="314.96" y="317.41" width="189.34" height="1.62"/><rect class="cls-7" x="314.96" y="334.59" width="189.34" height="1.62"/><rect class="cls-7" x="314.96" y="351.77" width="189.34" height="1.62"/><rect class="cls-3" x="127.53" y="105.83" width="49.89" height="260.44"/><polygon class="cls-8" points="127.53 105.83 177.43 105.83 159.07 82.83 87.62 82.83 127.53 105.83"/><polygon class="cls-2" points="127.53 105.83 87.62 82.83 87.62 366.27 127.53 366.27 127.53 105.83"/><rect class="cls-7" x="87.63" y="117.96" width="89.8" height="1.38"/><rect class="cls-7" x="87.63" y="132.71" width="89.8" height="1.38"/><rect class="cls-7" x="87.63" y="147.46" width="89.8" height="1.38"/><rect class="cls-7" x="87.63" y="162.19" width="89.8" height="1.38"/><rect class="cls-7" x="87.63" y="176.94" width="89.8" height="1.38"/><rect class="cls-7" x="87.63" y="191.67" width="89.8" height="1.38"/><rect class="cls-7" x="87.63" y="206.42" width="89.8" height="1.38"/><rect class="cls-7" x="87.63" y="221.17" width="89.8" height="1.38"/><rect class="cls-7" x="87.63" y="235.9" width="89.8" height="1.38"/><rect class="cls-7" x="87.63" y="250.65" width="89.8" height="1.38"/><rect class="cls-7" x="87.63" y="265.38" width="89.8" height="1.38"/><rect class="cls-7" x="87.63" y="280.13" width="89.8" height="1.38"/><rect class="cls-7" x="87.63" y="294.86" width="89.8" height="1.38"/><rect class="cls-7" x="87.63" y="309.61" width="89.8" height="1.38"/><rect class="cls-7" x="87.63" y="324.36" width="89.8" height="1.38"/><rect class="cls-7" x="87.63" y="339.09" width="89.8" height="1.38"/><rect class="cls-7" x="87.63" y="353.84" width="89.8" height="1.38"/><rect class="cls-3" x="303.85" y="134.05" width="67.29" height="232.21"/><rect class="cls-6" x="347.08" y="146.05" width="10.8" height="37.27"/><rect class="cls-6" x="320.6" y="146.05" width="10.8" height="37.27"/><rect class="cls-6" x="347.08" y="194.32" width="10.8" height="37.27"/><rect class="cls-6" x="320.6" y="194.32" width="10.8" height="37.27"/><rect class="cls-6" x="347.08" y="242.58" width="10.8" height="37.27"/><rect class="cls-6" x="320.6" y="242.58" width="10.8" height="37.27"/><rect class="cls-6" x="347.08" y="290.85" width="10.8" height="37.27"/><rect class="cls-6" x="320.6" y="290.85" width="10.8" height="37.27"/><polygon class="cls-9" points="303.84 134.06 371.13 134.06 355.36 117.97 288.07 117.97 303.84 134.06"/><polygon class="cls-6" points="303.84 134.06 288.07 117.97 272.28 134.06 272.28 366.27 303.84 366.27 303.84 134.06"/><circle class="cls-8" cx="224.63" cy="59.37" r="32.42"/><path class="cls-4" d="M463.81,10c-8.06-.78-15.47-6.48-26-8.05-5.23-.78-8.26,1.18-11.36,3-3.87,2.36-8.61,3.54-14.55,3.4A75.56,75.56,0,0,1,389,4.21c-6.66-2.27-13.61-5-18.89-4C360.34,2,360.05,8.47,352,9.39s-9.58,5.29-2.86,5.29h123C478,14.68,471.89,10.81,463.81,10Z"/><path class="cls-4" d="M116.76,8.69c-3.4,2-10.12.79-21.15-.93-6.47-1-9.68,1.06-14.17,2.92-1.79.76-9.68,3.34.61,3.34h57.26c15.87,0,1.11-2.83-1.43-3.93h-.13C130.17,6.71,120.14,6.71,116.76,8.69Z"/><path class="cls-4" d="M153.49,53.91h62.58c5.48,0-.24-3.61-7.76-4.33s-14.42-6-24.25-7.5S174,48.58,161,48.49C150.61,48.45,142.86,53.91,153.49,53.91Z"/></g><g id="freepik--Shadow--inject-2" class="cls-10"><ellipse id="freepik--path--inject-2" class="cls-4" cx="295.17" cy="406.22" rx="228.92" ry="13.37"/></g><g id="freepik--App--inject-2"><path class="cls-11" d="M161.89,130.15a1.35,1.35,0,0,1-1.35-1.35V20.7a1.35,1.35,0,0,1,2.69,0h0V128.8a1.35,1.35,0,0,1-1.35,1.35Z"/><path class="cls-11" d="M197.93,130.15a1.35,1.35,0,0,1-1.35-1.35V20.7a1.36,1.36,0,1,1,2.7,0V128.8A1.36,1.36,0,0,1,197.93,130.15Z"/><path class="cls-11" d="M197.93,58.08a1.36,1.36,0,0,1-1-.39L179.91,40.63l-17.06,17a1.36,1.36,0,0,1-1.91-1.91l17.06-17-17.06-17.1a1.36,1.36,0,0,1,1-2.36h36a1.36,1.36,0,0,1,1,2.31L181.82,38.75l17.06,17.06a1.35,1.35,0,0,1-1,2.36ZM165.15,22l14.76,14.76L194.67,22Z"/><path class="cls-11" d="M161.89,22a1.35,1.35,0,0,1-1-2.3l18-18a1.35,1.35,0,0,1,1.9,0h0l18,18a1.35,1.35,0,0,1,0,1.9h0a1.37,1.37,0,0,1-1.91,0L179.91,4.6,162.85,21.66A1.36,1.36,0,0,1,161.89,22Z"/><path class="cls-11" d="M234,22a1.38,1.38,0,0,1-1-.39L215.94,4.6,198.88,21.66a1.37,1.37,0,0,1-1.91,0,1.35,1.35,0,0,1,0-1.9h0l18-18a1.35,1.35,0,0,1,1.9,0h0l18.05,18a1.35,1.35,0,0,1-1,2.3Z"/><path class="cls-11" d="M234,22a1.38,1.38,0,0,1-1-.39,1.35,1.35,0,0,1,0-1.9h0l18-18a1.35,1.35,0,0,1,1.9,0h0l18,18a1.35,1.35,0,0,1,0,1.9h0a1.37,1.37,0,0,1-1.91,0L252,4.6,235,21.66A1.36,1.36,0,0,1,234,22Z"/><path class="cls-11" d="M161.89,94.12a1.35,1.35,0,0,1-1-2.3l36-36a1.36,1.36,0,0,1,1.91,1.91l-36,36A1.36,1.36,0,0,1,161.89,94.12Z"/><path class="cls-11" d="M197.93,94.12a1.36,1.36,0,0,1-1-.39l-36-36.08a1.36,1.36,0,0,1,1.91-1.91l36,36a1.35,1.35,0,0,1-1,2.3Z"/><path class="cls-12" d="M197.93,130.15h-36a1.35,1.35,0,0,1-1.25-.83,1.37,1.37,0,0,1,.3-1.48L178,110.77,160.94,93.71a1.36,1.36,0,0,1,1.91-1.91l17.06,17.06L197,91.8a1.36,1.36,0,0,1,1.91,1.91l-17.06,17.06,17.06,17.06a1.35,1.35,0,0,1-1,2.3Zm-32.78-2.69h29.52L179.91,112.7Z"/><polygon class="cls-11" points="149.28 40.16 130.04 40.16 132.46 20.7 146.85 20.7 149.28 40.16"/><path class="cls-11" d="M149.28,41.51H130a1.38,1.38,0,0,1-1-.45,1.41,1.41,0,0,1-.33-1.06l2.43-19.46a1.35,1.35,0,0,1,1.33-1.18h14.39a1.36,1.36,0,0,1,1.35,1.18L150.56,40a1.35,1.35,0,0,1-1.17,1.5h-.1Zm-17.71-2.7h16.18L145.66,22h-12Z"/><path class="cls-12" d="M270,22H127a1.36,1.36,0,0,1-.25-2.7H270a1.36,1.36,0,1,1,.25,2.7Z"/><path class="cls-11" d="M252,4H180a1.36,1.36,0,0,1,0-2.7h72a1.36,1.36,0,1,1,.25,2.7Z"/><rect class="cls-11" x="136.69" y="81.2" width="165.54" height="319.55" rx="13.31" ry="13.31"/><rect class="cls-13" x="136.69" y="81.2" width="165.54" height="319.55" rx="13.31" ry="13.31"/><rect class="cls-11" x="153.69" y="81.2" width="165.54" height="319.55" rx="13.31" ry="13.31"/><rect class="cls-9" x="159.22" y="86.74" width="154.45" height="308.46" rx="7.76" ry="7.76"/><rect class="cls-14" x="175.58" y="127.05" width="132.78" height="150.42" rx="9.61" ry="9.61" transform="translate(-9.53 11.97) rotate(-2.78)"/><rect class="cls-11" x="163.66" y="91.18" width="145.59" height="15.89" rx="5.17" ry="5.17"/><path class="cls-9" d="M179.06,102.84h0a3.73,3.73,0,0,1-3.73-3.72h0a3.74,3.74,0,0,1,3.73-3.73h0a3.74,3.74,0,0,1,3.73,3.73h0A3.73,3.73,0,0,1,179.06,102.84Z"/><path class="cls-9" d="M190.15,102.84h0a3.73,3.73,0,0,1-3.73-3.72h0a3.74,3.74,0,0,1,3.73-3.73h0a3.73,3.73,0,0,1,3.72,3.73h0A3.73,3.73,0,0,1,190.15,102.84Z"/><path class="cls-9" d="M201.23,102.84h0a3.73,3.73,0,0,1-3.73-3.72h0a3.74,3.74,0,0,1,3.73-3.73h0A3.73,3.73,0,0,1,205,99.12h0A3.73,3.73,0,0,1,201.23,102.84Z"/><rect class="cls-9" x="291.67" y="94.49" width="9.23" height="9.23" rx="2.03" ry="2.03"/><circle class="cls-11" cx="200.01" cy="308.48" r="25.87" transform="translate(-102.82 100.02) rotate(-22.5)"/><path class="cls-11" d="M292.34,296.72H241.91a3.25,3.25,0,0,1-3.24-3.23h0a3.25,3.25,0,0,1,3.24-3.23h50.44a3.24,3.24,0,0,1,3.24,3.23h0A3.24,3.24,0,0,1,292.34,296.72Z"/><path class="cls-11" d="M292.34,311.71H241.91a3.25,3.25,0,0,1-3.24-3.23h0a3.25,3.25,0,0,1,3.24-3.23h50.44a3.24,3.24,0,0,1,3.24,3.23h0A3.24,3.24,0,0,1,292.34,311.71Z"/><rect class="cls-11" x="238.67" y="320.24" width="56.91" height="6.47" rx="3.23" ry="3.23"/><rect class="cls-7" x="174.14" y="348.87" width="124.65" height="37.6" rx="11.59" ry="11.59"/><rect class="cls-9" x="187.76" y="119.63" width="132.78" height="150.42" rx="9.61" ry="9.61" transform="translate(-14.38 20.35) rotate(-4.46)"/><path class="cls-11" d="M202.61,274.89a10.2,10.2,0,0,1-10.15-9.45l-10.2-130.81a10.21,10.21,0,0,1,9.37-11l113.23-8.83a10.21,10.21,0,0,1,11,9.37L326,255a10.21,10.21,0,0,1-9.37,11l-113.23,8.82A3.08,3.08,0,0,1,202.61,274.89Zm-9-9.45a9,9,0,0,0,9.68,8.26l113.23-8.83a9,9,0,0,0,8.26-9.69l-10.2-130.81a9,9,0,0,0-9.69-8.26L191.7,124.94a9,9,0,0,0-8.26,9.69Z"/><rect class="cls-11" x="196.24" y="220.93" width="123.33" height="44.26" rx="7.59" ry="7.59" transform="translate(-18.12 20.79) rotate(-4.46)"/><rect class="cls-15" x="190.68" y="126.77" width="62.98" height="92.28" rx="7.69" ry="7.69" transform="translate(-12.77 17.8) rotate(-4.46)"/><rect class="cls-15" x="257.67" y="121.83" width="53.14" height="25.4" rx="6.17" ry="6.17" transform="translate(-9.6 22.51) rotate(-4.46)"/><rect class="cls-16" x="260.27" y="155.17" width="53.14" height="25.4" rx="6.17" ry="6.17" transform="translate(-12.19 22.81) rotate(-4.46)"/><rect class="cls-17" x="262.87" y="188.51" width="53.14" height="25.4" rx="6.17" ry="6.17" transform="translate(-14.77 23.12) rotate(-4.46)"/><path class="cls-12" d="M267.12,99.72a.6.6,0,0,1-.6-.6V20.7a.6.6,0,1,1,1.18,0V99.12A.6.6,0,0,1,267.12,99.72Z"/><path class="cls-12" d="M274.62,112h-15a2.77,2.77,0,0,1-2.66-2l-3.22-11a2.77,2.77,0,0,1,2.66-3.54h21.44A2.77,2.77,0,0,1,280.5,99l-3.22,11A2.76,2.76,0,0,1,274.62,112Z"/><path class="cls-12" d="M267.12,128.93a1.35,1.35,0,0,1,0-2.69,4.72,4.72,0,1,0,0-9.45,1.35,1.35,0,0,1-1.35-1.35V112a1.36,1.36,0,0,1,2.7,0v2.26a7.41,7.41,0,0,1-1.36,14.7Z"/></g><g id="freepik--Character--inject-2"><path class="cls-11" d="M475.48,146.87c1.5,3.46,2.73,6.74,3.93,10.19s2.3,6.85,3.24,10.39a101.6,101.6,0,0,1,2.46,11,57.62,57.62,0,0,1,.73,6,35.14,35.14,0,0,1-.18,7.08l-.07.48a4.43,4.43,0,0,1-.15.68,77.19,77.19,0,0,1-3.81,9.45c-1.38,3-3,5.76-4.51,8.54s-3.26,5.43-5,8.06-3.54,5.18-5.55,7.72a4.58,4.58,0,0,1-7.93-4.27v-.11c.94-2.85,2-5.75,3-8.61s2-5.69,3-8.52,1.91-5.66,2.76-8.41,1.59-5.51,2.11-8l-.22,1.18a21.52,21.52,0,0,0-.34-3.39c-.24-1.36-.53-2.85-.91-4.34s-.79-3-1.25-4.58-.93-3.11-1.45-4.72c-1-3.13-2.11-6.29-3.26-9.45l-3.46-9.36-.06-.17a9.12,9.12,0,1,1,16.92-6.79Z"/><path class="cls-18" d="M475.48,146.87c1.5,3.46,2.73,6.74,3.93,10.19s2.3,6.85,3.24,10.39a101.6,101.6,0,0,1,2.46,11,57.62,57.62,0,0,1,.73,6,35.14,35.14,0,0,1-.18,7.08l-.07.48a4.43,4.43,0,0,1-.15.68,77.19,77.19,0,0,1-3.81,9.45c-1.38,3-3,5.76-4.51,8.54s-3.26,5.43-5,8.06-3.54,5.18-5.55,7.72a4.58,4.58,0,0,1-7.93-4.27v-.11c.94-2.85,2-5.75,3-8.61s2-5.69,3-8.52,1.91-5.66,2.76-8.41,1.59-5.51,2.11-8l-.22,1.18a21.52,21.52,0,0,0-.34-3.39c-.24-1.36-.53-2.85-.91-4.34s-.79-3-1.25-4.58-.93-3.11-1.45-4.72c-1-3.13-2.11-6.29-3.26-9.45l-3.46-9.36-.06-.17a9.12,9.12,0,1,1,16.92-6.79Z"/><path class="cls-19" d="M459.15,220.58l-6,3.16,8.44,8.77a20.8,20.8,0,0,0,4.29-4.1,5.29,5.29,0,0,0-1.06-7.37h0A5.29,5.29,0,0,0,459.15,220.58Z"/><path class="cls-19" d="M449.83,233.79l3.48,2.57a3.54,3.54,0,0,0,4.55-.3l3.65-3.54-8.44-8.77-3.87,5.09A3.54,3.54,0,0,0,449.83,233.79Z"/><path class="cls-19" d="M363,164.65l-6.22-8-7.14,9.86s6.52,6.58,10.57,3.68Z"/><path class="cls-19" d="M346.31,155.21l-1.92,3.87a3.54,3.54,0,0,0,1.1,4.43l4.13,3,7.14-9.86-5.67-3a3.54,3.54,0,0,0-4.77,1.53Z"/><path class="cls-12" d="M466.2,407.29h-7.49l-.92-.86-1.38.86c-4.57,0-10.73-.17-13.67-1.18a1.92,1.92,0,0,1,.6-1.91s12.1-3.74,13.19-6.26h9.17"/><path class="cls-11" d="M456.92,301.44c-1.5-38.7.94-69.29-2.73-84.13l-34.24-5.54s6.3,65.56,13.88,92.68,21.25,94.1,21.25,94.1h11.65S467,333.2,456.92,301.44Z"/><path class="cls-13" d="M432.12,244.19l-6.36,16.53c2,14.46,4.46,29.26,7.08,39.88C435.66,281.31,433.62,249.67,432.12,244.19Z"/><path class="cls-12" d="M369.22,396.19s17.23,1.31,19.11-.77l9,2.77-2.53,9.09-5.57-1.7-.63-1.1-1.63.4c-4.51-1.38-16.43-5.22-19-7.08A2,2,0,0,1,369.22,396.19Z"/><path class="cls-11" d="M420.7,303.79a336.82,336.82,0,0,0,22.67-88.22L406,209.45s-5.55,67.62-8,95.41c-2.5,28.89-12.22,90.45-12.22,90.45L397.88,399S419.45,339.73,420.7,303.79Z"/><path class="cls-19" d="M457.33,110.83c-2.2,7.08-3.54,17.34-1.42,23.14-4.13,2.86-10.63,6.19-18.5,4.92s-5.63-6.38-3.13-8.81c6.06-2,6.69-4.86,5.69-7.59Z"/><path class="cls-11" d="M463,136.81a56.19,56.19,0,0,0-6-6.17c-1.84-1.28-17.13-3.18-20.78-3s-8.71,4.79-8.71,4.79Z"/><path class="cls-18" d="M463,136.81a56.19,56.19,0,0,0-6-6.17c-1.84-1.28-17.13-3.18-20.78-3s-8.71,4.79-8.71,4.79Z"/><path class="cls-12" d="M436.84,102.37c-.24.7-.79,1.18-1.24,1a1.22,1.22,0,0,1-.41-1.56c.24-.71.79-1.18,1.24-1A1.21,1.21,0,0,1,436.84,102.37Z"/><path class="cls-20" d="M436.57,103.36a26.21,26.21,0,0,1-5.3,4.85A4.27,4.27,0,0,0,434.4,110Z"/><path class="cls-12" d="M436.84,97.54a.39.39,0,0,0,.33.24,3.44,3.44,0,0,1,2.62,1.69.41.41,0,0,0,.54.21h0a.44.44,0,0,0,.2-.58,4.26,4.26,0,0,0-3.28-2.17.45.45,0,0,0-.44.63Z"/><path class="cls-19" d="M461.08,108.33c-3.36,8.41-4.9,13.51-10.63,16.45-8.7,4.43-18-3.11-17.21-12.37.7-8.34,6.07-20.69,15.58-21.25a12.48,12.48,0,0,1,12.26,17.18Z"/><path class="cls-12" d="M442.18,108.6A13.71,13.71,0,0,0,455.55,124c8.45,0,8.58-12,7.08-14.82,4.49-.78,7.08-6.94,4.34-10.84,4.12-3.24-5.41-8.15-17-8.78-12.79-.71-10.45,6.82-6.19,9.1C439.69,99.83,439.26,107.13,442.18,108.6Z"/><path class="cls-11" d="M439.73,92.73s.81,9.91,9.14,15.87,15.73,6.52,15.73,6.52l2.05-6.52S447.85,97.28,441.5,91A21.12,21.12,0,0,0,439.73,92.73Z"/><path class="cls-21" d="M439.73,92.73s.81,9.91,9.14,15.87,15.73,6.52,15.73,6.52l2.05-6.52S447.85,97.28,441.5,91A21.12,21.12,0,0,0,439.73,92.73Z"/><path class="cls-19" d="M446.6,108.72a7.58,7.58,0,0,1-4.63,3.14c-2.36.46-3.12-1.95-2.07-4.27.94-2.09,3.33-4.85,5.54-4.26S448,106.69,446.6,108.72Z"/><path class="cls-11" d="M462.63,135.75c-12-3.29-29.29-5.68-41.08-5.36a13.16,13.16,0,0,0-12.43,10.25c-4,17.31-4.6,48.5-5.76,79.82,25.69,13,54.46,7.84,54.46,7.84,1.52-6.13,1.18-27,.65-38.18,3.19-11,9-23.29,13.34-37.89a13.2,13.2,0,0,0-8.91-16.4Z"/><path class="cls-18" d="M462.63,135.75c-12-3.29-29.29-5.68-41.08-5.36a13.16,13.16,0,0,0-12.43,10.25c-4,17.31-4.6,48.5-5.76,79.82,25.69,13,54.46,7.84,54.46,7.84,1.52-6.13,1.18-27,.65-38.18,3.19-11,9-23.29,13.34-37.89a13.2,13.2,0,0,0-8.91-16.4Z"/><path class="cls-12" d="M424.87,128.65c-9.87-.57-16,4.31-18.52,19.21s-5.23,48.68-4.18,60.86c33.14,13.94,53.7,8.26,58.12,5,1.74-2.66,1.1-10.91.22-14.17a50.41,50.41,0,0,0,3.27-18.32c4.91-4.72,7.08-13.78,7.25-17.3,4.32-5.76,4.9-18.81,2.5-22.53S464.18,130.85,424.87,128.65Z"/><path class="cls-22" d="M406.93,211.21h0a.59.59,0,0,1-.59-.59c0-23.94,3.2-59.26,7.7-71.64a.59.59,0,0,1,.76-.35.58.58,0,0,1,.36.73v0c-4,11.09-7.6,44.38-7.63,71.24A.59.59,0,0,1,406.93,211.21Z"/><path class="cls-11" d="M424.71,145c-1.79,3.27-3.61,6.19-5.57,9.2s-4,5.9-6.26,8.76a95.08,95.08,0,0,1-7.27,8.45,51.39,51.39,0,0,1-4.42,4.1,30.89,30.89,0,0,1-5.9,3.93l-.43.21a4.52,4.52,0,0,1-.66.26A29.21,29.21,0,0,1,383.27,181a35.81,35.81,0,0,1-4.89-.72,46.21,46.21,0,0,1-4.57-1.18,58,58,0,0,1-8.38-3.44c-1.33-.67-2.62-1.39-3.9-2.15s-2.46-1.53-3.79-2.5a4.56,4.56,0,0,1,3.71-8.13l.4.09,3.7.86c1.25.3,2.51.55,3.77.79a72.37,72.37,0,0,0,7.37,1.06,37.45,37.45,0,0,0,6.79,0,15.8,15.8,0,0,0,5.22-1.31l-1.09.48a18.43,18.43,0,0,0,2.36-2.07c.91-.93,1.89-2,2.83-3.13s1.89-2.36,2.81-3.6,1.88-2.53,2.79-3.85c1.81-2.62,3.61-5.32,5.37-8.08s3.54-5.6,5.17-8.26l.08-.14A9.12,9.12,0,1,1,424.71,145Z"/><path class="cls-18" d="M424.71,145c-1.79,3.27-3.61,6.19-5.57,9.2s-4,5.9-6.26,8.76a95.08,95.08,0,0,1-7.27,8.45,51.39,51.39,0,0,1-4.42,4.1,30.89,30.89,0,0,1-5.9,3.93l-.43.21a4.52,4.52,0,0,1-.66.26A29.21,29.21,0,0,1,383.27,181a35.81,35.81,0,0,1-4.89-.72,46.21,46.21,0,0,1-4.57-1.18,58,58,0,0,1-8.38-3.44c-1.33-.67-2.62-1.39-3.9-2.15s-2.46-1.53-3.79-2.5a4.56,4.56,0,0,1,3.71-8.13l.4.09,3.7.86c1.25.3,2.51.55,3.77.79a72.37,72.37,0,0,0,7.37,1.06,37.45,37.45,0,0,0,6.79,0,15.8,15.8,0,0,0,5.22-1.31l-1.09.48a18.43,18.43,0,0,0,2.36-2.07c.91-.93,1.89-2,2.83-3.13s1.89-2.36,2.81-3.6,1.88-2.53,2.79-3.85c1.81-2.62,3.61-5.32,5.37-8.08s3.54-5.6,5.17-8.26l.08-.14A9.12,9.12,0,1,1,424.71,145Z"/><path class="cls-11" d="M466.81,112.75a1.18,1.18,0,0,1-1.18.28,57.4,57.4,0,0,1-18-11.05c-8.94-8.19-9.71-17.58-5.74-13.09,2.2-2.36,11.52-5.24,20.17-1.5C471.18,91.36,475.58,103.69,466.81,112.75Z"/><path class="cls-11" d="M459.17,86.39a16.71,16.71,0,0,1,4.49,17,19.3,19.3,0,0,0,5.48-2.1s1.38-6.62-1.18-10.89S459.73,85,459.17,86.39Z"/><path class="cls-13" d="M463.66,103.36a16.71,16.71,0,0,0-4.49-17,1,1,0,0,1,.73-.48C461.7,87.07,466.64,94.09,463.66,103.36Z"/></g></g></g></svg>